<svg xmlns="http://www.w3.org/2000/svg" viewBox="0 0 24 24" fill="none" stroke="currentColor" stroke-width="1.75" stroke-linecap="round" stroke-linejoin="round">
  <!-- index -->
  <path d="M7.2 11.2V7.4a1.25 1.25 0 0 1 2.5 0V11"/>
  <!-- middle -->
  <path d="M9.7 10.8V6.2a1.25 1.25 0 0 1 2.5 0V11"/>
  <!-- ring -->
  <path d="M12.2 10.8V7a1.25 1.25 0 0 1 2.5 0V11"/>
  <!-- pinky + palm + thumb -->
  <path d="M14.7 11.2V8.2a1.25 1.25 0 0 1 2.5 0V14c0 2.5-1.6 4.2-4.1 4.2h-.7c-2.5 0-4.1-1.7-4.1-4.2v-2.2a1.25 1.25 0 0 1 2.5 0"/>
</svg>
