<?xml version="1.0" encoding="UTF-8"?>
<svg xmlns="http://www.w3.org/2000/svg" width="32" height="32" viewBox="0 0 32 32">
  <!-- Closed fist: four knuckles + thumb -->
  <g fill="#111" stroke="#fff" stroke-width="1.3" stroke-linejoin="round">
    <path d="M8.8 13.6c0-1.3 1-2.3 2.3-2.3h12c1.3 0 2.3 1 2.3 2.3v6.4c0 3.1-2.3 5.4-5.4 5.4h-6c-3 0-5.2-2.3-5.2-5.4v-6.4z"/>
    <rect x="9.6" y="9.6" width="3" height="4.4" rx="1.5"/>
    <rect x="13.2" y="8.6" width="3" height="5.4" rx="1.5"/>
    <rect x="16.8" y="8.2" width="3" height="5.8" rx="1.5"/>
    <rect x="20.4" y="9" width="3" height="5" rx="1.5"/>
    <rect x="5.4" y="14.2" width="5.2" height="3" rx="1.5" transform="rotate(-38 8 15.7)"/>
  </g>
</svg>
